<svg
   version="1.1"
   id="svg1"
   xml:space="preserve"
   width="751.97723"
   height="583.81934"
   xmlns:inkscape="http://www.inkscape.org/namespaces/inkscape"
   xmlns:sodipodi="http://sodipodi.sourceforge.net/DTD/sodipodi-0.dtd"
   xmlns="http://www.w3.org/2000/svg"
   xmlns:svg="http://www.w3.org/2000/svg"><defs
     id="defs1" /><sodipodi:namedview
     id="namedview1"
     pagecolor="#505050"
     bordercolor="#eeeeee"
     borderopacity="1"
     inkscape:showpageshadow="0"
     inkscape:pageopacity="0"
     inkscape:pagecheckerboard="0"
     inkscape:deskcolor="#d1d1d1" /><inkscape:clipboard
     style="font-variation-settings:normal;opacity:1;vector-effect:none;fill:#ffffff;fill-opacity:1;stroke:none;stroke-width:3.77952756;stroke-linecap:butt;stroke-linejoin:miter;stroke-miterlimit:4;stroke-dasharray:none;stroke-dashoffset:0;stroke-opacity:1;-inkscape-stroke:none;stop-color:#000000;stop-opacity:1"
     min="556.29759,-722.98325"
     max="1308.2748,-139.16392"
     geom-min="556.29759,-722.98325"
     geom-max="1308.2748,-139.16392" /><g
     id="g1"
     transform="matrix(3.7795276,0,0,3.7795276,-552.85747,751.88325)"><path
       style="fill:#ffffff;fill-opacity:1;stroke:none"
       d="m 180.24192,-154.02555 h -0.0847 c -0.74812,-2.94395 -1.73059,-5.72491 -3.72897,-8.08042 -5.58395,-6.58191 -15.51055,-8.10288 -22.68704,-3.25058 -3.50544,2.37016 -6.07554,5.96934 -6.89551,10.14567 -0.16733,0.85226 -0.23479,1.68251 -0.34917,2.53659 -0.0495,0.36962 -0.32169,0.69349 -0.0367,1.01941 v 0.0847 0.0847 l -0.12326,1.22903 -0.0461,3.93564 0.16933,1.524 v 0.0847 l -0.11459,1.15976 -0.0547,3.15824 0.16933,1.27 v 0.0847 0.0847 c -0.34843,0.39686 -0.0959,1.44963 -0.0754,1.9542 0.063,1.55172 -0.0804,3.08925 -0.0343,4.6585 0.10349,3.51892 -0.005,6.98337 2.5e-4,10.48996 0.002,1.55586 -0.0251,3.12635 -0.0236,4.65667 7.6e-4,0.7884 0.16927,1.50426 -0.0362,2.286 0.2295,0.29388 0.20353,0.54114 0,0.84667 v 0.0847 c 0.55868,0.7389 0.19154,2.54669 0.0834,3.41201 -0.0523,0.41832 0.17776,0.6767 -0.0834,1.07532 v 0.0847 0.0847 c 0.31663,0.47216 0.21566,1.30927 0.18768,1.86267 -0.0563,1.11346 -0.0177,2.27401 0.0203,3.38667 0.11349,3.32514 0.5256,6.252482 2.15839,9.228662 4.32539,7.884129 14.89647,10.810916 22.77965,6.637497 1.98839,-1.05267 3.85298,-2.787179 5.26426,-4.52083 1.71343,-2.104833 2.68737,-4.410512 3.30235,-7.027334 0.13814,-0.587825 0.28397,-1.345035 0.29664,-1.947335 0.0124,-0.59071 -0.12553,-1.3919 0.28075,-1.86266 0.1402,0.86348 0.61157,1.65911 0.95411,2.45533 0.65729,1.527854 1.35638,3.02462 2.15033,4.487332 2.97678,5.484213 6.47475,10.456065 10.67783,15.070667 17.48736,19.199527 45.76734,26.976747 70.6304,19.668507 8.51881,-2.50404 16.39157,-6.58664 23.45267,-11.95793 8.18484,-6.22609 14.64233,-14.222717 19.44323,-23.289244 1.37119,-2.589485 2.40192,-5.399052 3.45703,-8.128002 0.24813,-0.64176 0.46755,-1.29125 0.67463,-1.94731 0.0537,-0.17025 0.1019,-0.62827 0.32453,-0.67046 0.30865,-0.0585 0.53737,1.67044 0.56188,1.94044 0.19644,2.16373 0.94754,4.4108 1.48428,6.519332 1.33771,5.25509 3.18204,10.255457 5.09124,15.324667 0.51817,1.375833 1.16942,2.753093 1.83592,4.063997 0.21448,0.42187 0.4422,1.16007 0.86051,1.41734 0.37888,0.23302 1.06036,0.10666 1.48808,0.10666 h 3.72533 4.65667 c 0.52104,0 1.38956,0.175 1.75917,-0.27805 1.19955,-1.470357 1.89787,-3.81962 2.60976,-5.563947 1.76341,-4.32077 3.27023,-8.705578 4.48672,-13.208 2.14911,-7.954349 3.46777,-15.937899 4.02112,-24.129779 0.026,-0.38456 0.21917,-0.72038 0.24152,-1.1043 0.13204,-2.26841 0.005,-4.58199 0.005,-6.85459 0,-2.52357 0.14939,-5.09821 -0.005,-7.61659 -0.33633,-5.47886 -1.36233,-11.0118 -2.73738,-16.34407 -1.65212,-6.40671 -4.30603,-12.49527 -8.19605,-17.86618 -1.56736,-2.16404 -4.20092,-4.91588 -7.09536,-4.55395 -1.81388,0.22681 -3.41901,2.23027 -4.60352,3.44268 -4.04887,4.14423 -6.59154,10.38784 -8.26507,15.84478 -0.4735,1.54397 -0.93183,3.0898 -1.31105,4.65667 -0.1585,0.65492 -0.18849,1.48976 -0.72169,1.94733 -0.43962,-2.22394 -1.47075,-4.44805 -2.37019,-6.51933 -2.24822,-5.17731 -5.08418,-9.91489 -8.39614,-14.478 -3.51757,-4.84641 -7.84975,-9.10173 -12.517,-12.83548 -18.77049,-15.01616 -44.58627,-18.84439 -67.14067,-11.00001 -10.96134,3.81234 -20.8777,10.79488 -28.55258,19.43282 -4.17803,4.7023 -7.71468,9.92634 -10.47904,15.57867 -0.93572,1.91328 -1.93096,3.87995 -2.53971,5.92666 m 62.82266,-39.76623 c 5.33394,-0.55497 11.0546,0.37399 16.256,1.43623 22.23695,4.54131 40.98402,21.66594 47.91881,43.24067 2.68027,8.33854 3.57566,17.27014 2.86902,25.99267 -1.22172,15.08031 -8.56585,30.296999 -19.54583,40.718068 -10.07581,9.562908 -23.12452,15.895358 -36.91466,17.595428 -8.22016,1.0134 -17.28941,0.57981 -25.23067,-1.85402 -10.65414,-3.26525 -20.50086,-8.43905 -28.44778,-16.412209 -7.25108,-7.274998 -12.80839,-16.224819 -15.99959,-25.992607 -5.65072,-17.29605 -3.46455,-37.49068 5.97135,-53.086 4.51101,-7.45565 10.39156,-13.97209 17.39402,-19.16195 7.00762,-5.19369 15.30462,-8.96214 23.79133,-10.93066 3.95819,-0.91813 7.92196,-1.12777 11.938,-1.54562 m 24.97667,19.31421 c -3.00015,0.35427 -5.93304,0.86486 -8.72067,2.11133 -12.81205,5.72883 -19.31303,20.09017 -22.13658,33.07269 -1.01446,4.66442 -1.96706,9.51497 -1.9932,14.30867 -0.0334,6.11944 0.0336,12.69293 3.07617,18.2027 4.95727,8.977045 17.2738,10.191576 26.30295,7.820764 6.64525,-1.744864 13.66751,-5.559674 17.60046,-11.376134 0.89214,-1.31939 1.8337,-2.60954 2.50309,-4.064 0.25951,-0.56386 0.69348,-1.14436 0.4173,-1.77799 -0.26493,-0.60784 -1.09555,-1.64903 -1.88898,-1.36552 -0.63781,0.22791 -1.31065,1.46564 -1.78321,1.95818 -1.37814,1.43639 -2.83128,2.73447 -4.48733,3.84693 -1.08663,0.72995 -2.2637,1.40914 -3.47133,1.919 -6.08664,2.56979 -15.65384,3.95767 -19.53642,-2.88726 -2.42052,-4.26733 -2.24292,-10.08078 -1.818,-14.81667 0.9451,-10.53374 2.92858,-21.74165 8.26205,-31.07267 2.55069,-4.4625 6.38189,-11.05173 12.33037,-11.05136 0.67222,4e-5 1.56448,0.16639 2.20133,0.37612 5.06883,1.66924 3.95389,7.99468 2.02339,11.60658 -0.46775,0.87515 -1.05275,1.59786 -1.76939,2.28192 -0.24671,0.2355 -0.93317,0.57383 -0.95814,0.94716 -0.0386,0.5769 1.12608,1.29262 1.55081,1.54267 1.73621,1.02211 3.9359,1.32838 5.92666,0.94839 2.33178,-0.44508 4.03223,-2.60847 4.61491,-4.78881 0.94033,-3.51862 0.85501,-7.74661 -0.94939,-11.00667 -2.43597,-4.40113 -7.18964,-6.02764 -11.87818,-6.5393 -1.77956,-0.1942 -3.62151,-0.40892 -5.41867,-0.19672 m -49.19133,10.29202 c 0.2786,1.36696 -0.57875,3.37965 -0.87131,4.74134 -0.76974,3.58261 -1.48691,7.18439 -2.30929,10.75266 -2.7563,11.95957 -5.0098,23.99994 -7.68065,35.98334 -0.95667,4.29226 -2.16905,8.68233 -2.78157,13.038662 -0.14098,1.002657 -0.51378,1.967746 -0.68595,2.963333 -0.0487,0.281668 -0.22772,0.799393 -0.0547,1.057579 0.18996,0.283404 0.64355,0.148053 0.92144,0.134338 0.85656,-0.04228 1.77036,-0.06411 2.62466,0.01182 3.10229,0.275756 6.1797,1.067552 8.97467,2.465265 6.76332,3.382212 12.37831,8.343563 18.37288,12.874565 4.25884,3.21905 8.73474,6.37542 14.13912,7.14654 0.91474,0.13051 1.88002,0.17169 2.794,0.0131 4.80518,-0.83352 7.10838,-5.88245 8.32716,-10.071927 0.36198,-1.244296 0.57062,-2.532022 0.78612,-3.81 0.0685,-0.406311 0.30841,-1.177096 0.12389,-1.565982 -0.12685,-0.267353 -0.47295,-0.160435 -0.68591,-0.08816 -0.67581,0.22935 -1.356,0.435653 -2.03193,0.662347 -2.89836,0.972044 -6.00081,0.694521 -8.97466,0.475681 -2.37551,-0.174811 -4.82615,-1.101059 -7.02734,-1.955436 -5.48617,-2.12942 -10.50574,-5.272887 -15.748,-7.916891 -1.68276,-0.848724 -3.44906,-1.61123 -5.24933,-2.163248 -0.50745,-0.155598 -1.67717,-0.250992 -1.87649,-0.834686 -0.12134,-0.35537 0.11704,-0.82664 0.18683,-1.17629 0.18644,-0.93426 0.36756,-1.86295 0.55829,-2.794 0.70796,-3.45594 1.55192,-6.8733 2.25603,-10.32933 2.69802,-13.24274 5.63182,-26.43824 8.5052,-39.624 0.9376,-4.30258 1.70831,-8.69082 2.82268,-12.954 0.27882,-1.06666 0.46349,-2.14106 0.685,-3.21734 0.0726,-0.35252 0.31112,-0.8195 -0.0469,-1.09043 -0.74527,-0.56392 -2.38988,-0.26423 -3.26928,-0.26423 -3.06767,0 -5.98686,0.24244 -8.97466,0.96574 -7.82476,1.89427 -15.47451,5.76636 -20.91267,11.81892 -3.04081,3.38436 -5.39576,7.44055 -5.90663,12.02267 -0.5222,4.68386 1.57435,9.52187 6.4993,10.53492 1.05827,0.21768 2.12969,0.46119 3.21733,0.47237 0.32475,0.003 0.85955,0.14068 1.10208,-0.1449 0.39542,-0.4656 -0.5738,-1.84878 -0.67597,-2.39572 -0.43987,-2.35483 -0.66193,-4.61904 -0.40813,-7.02734 0.63586,-6.03351 3.12605,-11.62114 7.94068,-15.49741 1.63179,-1.31376 3.44406,-2.32738 5.33401,-3.21392 m 107.3572,-7.28131 v 37.76133 8.128 c 0,0.66558 -0.312,2.38199 0.0949,2.91218 0.36316,0.47324 2.23403,0.28482 2.78151,0.20303 0.8728,-0.13037 0.5103,-2.03124 0.5103,-2.69187 v -8.80534 -37.50733 c 0.93613,0.22998 1.80702,1.77498 2.35055,2.52853 1.82656,2.53228 3.32383,5.26114 4.53262,8.13947 4.94664,11.77873 6.28427,25.2617 5.15789,37.93067 -0.23496,2.64281 -0.44336,5.24303 -0.7526,7.874 -0.12929,1.10009 -0.14089,2.22742 -0.4396,3.302 -0.22202,0.7987 -0.0156,2.86757 -0.8582,3.21733 -4.1232,-6.66862 -12.31323,-9.11357 -17.80491,-14.31743 -2.59223,-2.45637 -5.20414,-5.83793 -6.24991,-9.30463 -0.43148,-1.43034 -0.28155,-3.24663 -0.441,-4.74127 -0.17136,-1.6061 -0.69001,-3.2985 -0.64774,-4.91067 0.0396,-1.5121 0.44217,-3.17045 0.72244,-4.65667 0.66402,-3.52116 1.39824,-6.9843 2.52569,-10.414 1.32966,-4.04472 3.12492,-8.4753 5.86462,-11.78706 0.67659,-0.81785 1.57929,-2.59554 2.65348,-2.86027 m -164.50737,7.65227 c 6.22845,-0.80263 12.07896,3.07858 13.92261,9.02706 0.76886,2.48068 0.45749,5.1606 0.47258,7.70467 0.0166,2.79314 0.10815,5.59072 0.0529,8.382 -0.0499,2.52082 -0.44935,5.00822 -0.47744,7.53533 -0.0277,2.49723 -0.0843,5.04607 0.0956,7.53534 0.0922,1.27579 0.42488,2.52713 0.48981,3.81 0.17331,3.42428 0.007,6.90024 0.007,10.32933 0,2.83656 0.45142,6.12847 -0.25253,8.89 -1.36335,5.348284 -5.69699,9.474399 -11.26192,10.054932 -5.92953,0.618567 -11.80502,-3.014234 -13.58672,-8.784931 -0.72707,-2.354871 -0.60377,-4.765331 -0.55441,-7.196671 0.0599,-2.94856 0.0376,-5.94392 -0.0165,-8.89 -0.15457,-8.40201 -0.0215,-16.8266 -0.0668,-25.23066 -0.0145,-2.68978 0.043,-5.3545 0.0674,-8.04334 0.015,-1.65149 -0.22952,-3.45228 0.16107,-5.08 1.25985,-5.25019 5.54174,-9.34641 10.94775,-10.04306 m 0.67733,16.47773 -3.556,0.16933 c -0.17722,-0.8259 0.0339,-1.64586 -0.57233,-2.34175 -0.22769,-0.26138 -0.52564,-0.49313 -0.86702,-0.57708 -1.06259,-0.26127 -3.62623,-0.34598 -4.42336,0.5072 -0.56518,0.60492 -0.54212,1.48224 -0.5415,2.2423 0.001,1.42513 0.0262,2.84875 0.0461,4.27043 0.011,0.78199 -0.11083,1.61562 0.28858,2.33177 0.78817,1.41321 4.56766,1.54071 5.55808,0.31476 0.38983,-0.48253 0.42448,-0.99082 0.42682,-1.58296 0.001,-0.28429 -0.048,-0.70333 0.27798,-0.82808 0.6481,-0.24803 1.58047,-0.0348 2.26194,-0.0484 0.25914,-0.005 0.57664,-0.10311 0.8111,0.0525 0.38571,0.25596 0.11683,0.91612 0.71541,0.99858 0.94903,0.13074 1.94131,0.0648 1.69083,-1.10587 0.84643,-1e-5 1.69378,-0.0232 2.54,-0.007 0.28434,0.006 0.72495,-0.0604 0.94643,0.1611 0.26241,0.26241 0.12516,0.78319 0.18582,1.11577 0.15819,0.86731 0.73035,1.43918 1.57708,1.63341 1.38742,0.31826 3.88006,0.33458 4.5777,-1.12563 0.25197,-0.52738 0.14761,-1.21072 0.13446,-1.77778 -0.0242,-1.04161 0.0542,-2.09434 -0.027,-3.13267 -0.1102,-1.40801 0.52057,-3.38191 -1.12936,-4.15641 -1.17226,-0.55029 -3.97416,-0.17609 -4.77186,0.85606 -0.37229,0.48171 -0.2021,1.98217 -0.82183,2.05705 -0.73415,0.0887 -2.17499,0.29469 -2.85867,-0.0216 -0.46632,-0.21573 -0.19018,-0.87552 -0.78044,-0.99706 -0.88548,-0.18231 -1.92294,-0.12221 -1.68897,0.99195 M 336.537,-94.504906 h -0.254 c -1.97834,-4.485318 -6.92538,-6.792604 -10.65653,-9.509774 -3.8355,-2.79316 -7.04903,-6.52735 -9.10735,-10.81023 -0.60093,-1.25041 -1.32636,-2.6024 -1.57987,-3.97933 -0.15978,-0.8679 0.0812,-1.75636 0.15869,-2.62467 0.0972,-1.09002 0.0898,-2.33046 0.35706,-3.38666 0.9266,0.51735 1.65365,1.8144 2.32964,2.62466 1.10296,1.32203 2.43844,2.51119 3.77848,3.58659 4.68713,3.76148 10.75244,6.04587 14.52688,10.89293 0.98225,1.26137 2.29696,2.62116 2.6799,4.23182 0.20108,0.84572 -0.4076,2.22383 -0.64257,3.048 -0.55481,1.94609 -1.16544,3.945534 -1.59033,5.926664 M 168.135,-107.20491 c 1e-4,0.83392 -0.0597,1.69639 0.53665,2.3618 0.81506,0.90939 2.60002,0.63342 3.69669,0.53527 0.51163,-0.0458 0.93674,-0.0261 1.35032,-0.38458 0.56751,-0.49185 0.47613,-1.07556 0.57627,-1.75049 0.23645,-1.59374 0.0473,-3.46811 -0.0304,-5.08 -0.03,-0.62149 0.14771,-1.41959 -0.16272,-1.99426 -0.68043,-1.25963 -2.16856,-0.98745 -3.3421,-0.89729 -0.57629,0.0443 -1.15143,-0.011 -1.68604,0.27623 -0.55519,0.29832 -0.7822,1.00084 -0.80183,1.59932 -0.0126,0.3841 0.16082,0.91408 -0.24547,1.16313 -0.26929,0.16507 -0.61341,0.0592 -0.90733,0.059 -0.66192,-3.4e-4 -1.93596,0.2217 -2.51531,-0.14344 -0.56334,-0.35503 -0.0438,-0.93227 -0.95588,-0.98086 -0.2843,-0.0151 -1.03763,-0.12882 -1.22637,0.14122 -0.19068,0.27284 0.0661,0.70813 -0.32188,0.88076 -0.70801,0.31505 -2.32885,0.1446 -3.10262,0.0686 -0.6176,-0.0607 -0.40216,-1.91822 -0.79022,-2.445 -0.24093,-0.32707 -0.60337,-0.53225 -0.99372,-0.63094 -1.00518,-0.25414 -3.43103,-0.34074 -4.21063,0.39912 -0.92651,0.87927 -0.5307,2.78658 -0.5307,3.94376 0,1.58252 -0.67602,4.88276 1.10089,5.68913 0.66931,0.30373 1.73229,0.22882 2.45511,0.18336 0.53251,-0.0335 1.20748,-0.006 1.69306,-0.25221 1.11752,-0.56605 0.41796,-2.13525 1.28279,-2.60579 0.53538,-0.29129 2.56885,-0.33621 3.09547,-0.0258 0.3269,0.19267 0.15038,0.58941 0.36475,0.84101 0.21022,0.24672 0.80127,0.1971 1.0992,0.20246 0.95115,0.0171 0.59245,-0.87667 1.27916,-1.10232 0.92958,-0.30545 2.31567,-0.0512 3.2929,-0.0512 m 147.65867,-2.286 c 0.74437,0.73513 1.29644,1.72258 1.95719,2.53848 1.1546,1.42571 2.58087,2.85764 3.98946,4.03331 3.42952,2.86239 7.64266,4.739479 10.51041,8.22647 1.03826,1.262445 2.23089,2.927274 2.48673,4.590407 0.13467,0.875471 -0.35169,1.664095 -0.64779,2.453763 -0.71262,1.900514 -1.92759,3.88182 -2.37867,5.843571 -0.44373,0 -1.70695,0.21702 -2.01,-0.154234 -0.33009,-0.404389 -0.10666,-1.62818 -0.10666,-2.131766 v -5.926667 c 0,-0.546137 0.27897,-2.166845 -0.13924,-2.545106 -0.45715,-0.413494 -2.06625,-0.209517 -2.65406,-0.155122 -1.02278,0.09465 -0.59337,2.434497 -0.59337,3.208228 v 5.672667 c 0,0.426682 0.20695,1.630515 -0.15422,1.925339 -0.38222,0.312002 -1.48655,0.106661 -1.96245,0.106661 -0.22938,-0.997593 -0.81622,-1.975353 -1.23916,-2.905776 -0.5462,-1.20156 -1.01434,-2.461607 -1.47565,-3.698224 -1.70449,-4.569096 -3.15943,-9.297944 -4.18496,-14.054671 -0.34617,-1.60566 -0.659,-3.22925 -1.01945,-4.826 -0.13424,-0.59466 -0.60923,-1.6303 -0.37811,-2.20133 m -131.23379,62.653368 c 0.46807,3.34766 5.32709,2.81012 5.95041,-0.16934 0.34348,-1.64178 -0.68123,-2.93952 -2.14041,-3.56348 -0.89039,-0.38075 -2.08289,-0.59825 -2.36869,-1.68585 -0.47612,-1.8119 2.10472,-2.68151 2.87669,-0.93133 l 1.43933,-0.254 c -0.20184,-0.60923 -0.44768,-1.1477 -0.93498,-1.58614 -2.14649,-1.93133 -5.01989,0.21144 -4.81017,2.77147 0.16563,2.02187 1.9788,2.35628 3.45915,3.11448 0.72315,0.37039 1.39129,1.10736 1.03903,1.96546 -0.35424,0.86289 -1.44692,1.44582 -2.30897,0.97021 -0.36086,-0.1991 -0.5951,-0.6627 -0.97004,-0.80417 -0.35034,-0.1322 -0.8812,0.0981 -1.23135,0.17269 m 24.29933,-8.89 v 11.176 h 1.35467 v -4.826 h 3.302 v -1.524 h -3.302 v -3.302 h 4.40266 v -1.524 h -5.75733 m 18.96533,0 v 11.176 h 5.75734 v -1.524 h -4.40267 v -3.302 h 3.302 v -1.524 h -3.302 v -3.302 h 4.40267 v -1.524 h -5.75734 m 10.668,0 -3.16976,8.21266 -1.06357,2.87867 c 0.38627,0 1.1248,0.14196 1.42247,-0.15424 0.40478,-0.40279 0.33755,-1.29481 0.8908,-1.55418 0.84942,-0.39824 2.67565,-0.10561 3.61268,-0.0671 0.94356,0.0388 0.73892,1.09945 1.28067,1.62126 0.30604,0.2948 1.0373,0.15424 1.42938,0.15424 -0.66464,-2.58107 -1.95181,-5.13937 -2.92989,-7.62 -0.418,-1.06015 -0.73027,-2.60484 -1.47278,-3.47133 m 17.35667,0 v 11.176 h 5.75733 v -1.524 h -4.40266 v -3.302 h 3.302 v -1.524 h -3.302 v -3.302 h 4.40266 v -1.524 h -5.75733 m 10.49867,8.89 c 0.46811,3.3476 5.32711,2.81018 5.95042,-0.16934 0.34347,-1.6418 -0.68125,-2.93952 -2.14042,-3.56348 -0.8904,-0.38075 -2.08291,-0.59825 -2.36869,-1.68585 -0.47609,-1.8119 2.10474,-2.68155 2.87669,-0.93133 l 1.43933,-0.254 c -0.20184,-0.60923 -0.44768,-1.1477 -0.93498,-1.58614 -2.14648,-1.93135 -5.01988,0.21144 -4.81017,2.77147 0.16563,2.02187 1.97879,2.35628 3.45915,3.11448 0.72316,0.37039 1.39128,1.10736 1.03902,1.96546 -0.35425,0.86291 -1.4469,1.4458 -2.30896,0.97021 -0.36087,-0.1991 -0.59509,-0.6627 -0.97004,-0.80417 -0.35033,-0.1322 -0.88119,0.0981 -1.23135,0.17269 m 22.18266,-8.89 v 11.176 h 5.75734 v -1.524 h -4.40267 v -3.302 h 3.302 v -1.524 h -3.302 v -3.302 h 4.40267 v -1.524 h -5.75734 m 6.77334,0 v 11.176 h 5.75733 v -1.524 h -4.40267 v -3.302 h 3.302 v -1.524 h -3.302 v -3.302 h 4.40267 v -1.524 h -5.75733 m -103.80134,0.0847 v 5.334 c 0,1.3265 -0.0659,2.62093 0.62609,3.81 1.72496,2.9642 5.96165,2.46941 7.15424,-0.67733 0.37656,-0.99357 0.26301,-2.09035 0.26301,-3.13267 v -5.334 h -1.35467 v 5.24934 c 0,0.96391 0.12756,1.9977 -0.34459,2.87866 -1.05805,1.97417 -3.67906,1.92964 -4.66008,-0.0847 -0.43158,-0.88617 -0.32933,-1.92365 -0.32933,-2.87867 v -5.16467 h -1.35467 m 9.48267,0 v 11.00667 h 1.35467 v -1.69333 -1.10067 c 3.1e-4,-0.83009 0.70482,-1.67903 1.55597,-0.88888 0.98899,0.91811 1.179,2.67457 2.22892,3.52864 0.39107,0.31812 1.24219,0.15424 1.71844,0.15424 l -2.37067,-4.064 c 2.55132,-1.07338 3.11991,-4.80182 0.67734,-6.41792 -1.39458,-0.9227 -3.57006,-0.52475 -5.16467,-0.52475 m 14.224,0 c 0.41023,2.38346 1.54206,4.83026 2.34045,7.112 0.44761,1.27924 0.71436,2.80136 1.38488,3.97934 l 1.39171,-4.48734 0.72496,-2.032 1.94733,6.604 h 0.0847 l 3.72533,-11.176 -1.38293,0.10666 -0.68616,1.67134 -1.65624,5.08 h -0.0847 l -1.94733,-6.43466 h -0.0847 l -2.032,6.35 -1.63689,-4.826 -0.72141,-1.84068 -1.36703,-0.10666 m 28.61733,0 v 11.00667 h 1.35467 v -1.69333 -1.10067 c 3e-4,-0.83009 0.70482,-1.67901 1.55598,-0.88888 0.989,0.91811 1.17898,2.67457 2.22892,3.52864 0.39105,0.31812 1.24218,0.15424 1.71843,0.15424 l -2.37066,-4.064 c 2.5513,-1.0734 3.11991,-4.80182 0.67733,-6.41792 -1.39457,-0.9227 -3.57006,-0.52475 -5.16467,-0.52475 m 29.04067,0 v 1.43934 h 2.70933 v 9.56733 h 1.35467 v -9.56733 h 2.70933 v -1.43934 h -6.77333 m 7.78933,0 v 11.00667 h 1.35467 v -1.69333 -1.10067 c 3e-4,-0.83009 0.70482,-1.67901 1.55598,-0.88888 0.989,0.91811 1.17898,2.67457 2.22892,3.52864 0.39105,0.31812 1.24219,0.15424 1.71843,0.15424 l -2.37066,-4.064 c 2.55129,-1.0734 3.11991,-4.80182 0.67733,-6.41792 -1.39457,-0.9227 -3.57006,-0.52475 -5.16467,-0.52475 m 20.91267,0 v 1.43934 h 2.70933 v 9.56733 h 1.35467 v -9.56733 h 2.70933 v -1.43934 h -6.77333 m -99.22933,5.67267 v -4.23333 c 0.96088,0 2.2027,-0.21097 3.04636,0.34592 1.27601,0.84228 1.10446,3.04215 -0.25243,3.72242 -0.76272,0.38238 -1.9593,0.16499 -2.79393,0.16499 m 42.84133,0 v -4.23333 c 0.96089,0 2.20272,-0.21097 3.04637,0.34592 1.276,0.84228 1.10445,3.04215 -0.25243,3.72242 -0.76274,0.38238 -1.95929,0.16499 -2.79394,0.16499 m 36.83,0 v -4.23333 c 0.96089,0 2.20271,-0.21097 3.04637,0.34592 1.276,0.84228 1.10445,3.04215 -0.25243,3.72242 -0.76275,0.38238 -1.95929,0.16499 -2.79394,0.16499 m -43.34933,-2.032 1.524,4.40267 h -3.302 l 1.60866,-4.40267 z"
       id="path2" /></g></svg>
